# xmcd
#
# Track frame offsets:
#	150
#	13227
#	27720
#	48890
#	66527
#	83082
#	97777
#	113672
#	127687
#	140190
#	155267
#	171875
#	187230
#	204757
#	219175
#	233715
#	247040
#	260585
#	275967
#	289440
#	300260
#	318967
#
# Disc length: 4482 seconds
#
# Revision: 4
# Processed by: cddbd v1.5.2PL0 Copyright (c) Steve Scherf et al.
# Submitted via: audiograbber 1.83.01
#
DISCID=3f118016
DTITLE=Various Artist - A Time For Us - Dynamic Country Duos
DYEAR=1900
DGENRE=Oldies
TTITLE0=Kathy Mattea and Tim O'Brien - The Battle Hymn Of Love
TTITLE1=Johnny Lee and Roe McCaw - Together (The New Wedding Song)
TTITLE2=John MacNally and Roe McCaw - Power Of Love
TTITLE3=Eddie Rabbitt and Crystal Gayle - You And I
TTITLE4=Tanya Tucker, Paul Overstreet and Paul Davis - I Won't Take Less Than You
TTITLE4=r Love
TTITLE5=Tanya Tucker  and T. Graham Brown - Don't Go Out
TTITLE6=Keith Whitley and Lorrie Morgan - 'Til A Tear Becomes A Rose
TTITLE7=Vince Gill and Reba McEntire - Oklahoma Swing
TTITLE8=Lee Greenwood and Suzy Bogguss - Hopelessly Yours
TTITLE9=Rodney Crowell and Rosanne Cash - It's Such A Small World
TTITLE10=Trisha Yearwood and Garth Brooks - Like We Never Had A Broken Heart
TTITLE11=David Frizzell and Shelly West - You're The Reason God Made Oklahoma
TTITLE12=Eddie Rabbitt and Juice Newton - Both To Each Other (Friends and Lovers)
TTITLE13=Janie Frickie and Johnny Duncan - Come A Little Bit Closer
TTITLE14=Charlie Rich and Janie Fricke - On My Knees
TTITLE15=George Jones and Tammy Wynette - We're Gonna Hold On
TTITLE16=Charly McClain and Mickey Gilley - Paradise Tonight
TTITLE17=Larry Gatlin With Janie Frickie - From Time To Time It Feels Like Love
TTITLE18=Loretta Lynn and Conway Twitty - Feelings
TTITLE19=Johnny Lee and Anni O'Brien - The Yellow Rose
TTITLE20=Gary F. Jellgaard and Linda Kidder - Fire and Lace
TTITLE21=Charly McClain and Wayne Masse - You Are My Music
EXTD=Correction
EXTT0=Kathy Mattea with Tim O'Brien
EXTT1=Johnny Lee (with Roe McCaw)
EXTT2=John MacNally (with Roe McCaw)
EXTT3=Eddie Rabbitt and Crystal Gayle
EXTT4=Tanya Tucker (with Paul Overstreet and Paul Davis)
EXTT5=Tanya Tucker (duet with T. Graham Brown)
EXTT6=Keith Whitley (Duet with Lorrie Morgan)
EXTT7=Vince Gill (with Reba McEntire)
EXTT8=Lee Greenwood (with Suzy Bogguss)
EXTT9=Rodney Crowell (with Rosanne Cash)
EXTT10=Trisha Yearwood and Garth Brooks
EXTT11=David Frizzell and Shelly West
EXTT12=Eddie Rabbitt and Juice Newton
EXTT13=Janie Frickie (with Johnny Duncan)
EXTT14=Charlie Rich and Janie Frickie
EXTT15=George Jones and Tammy Wynette
EXTT16=Charly McClain and Mickey Gilley
EXTT17=Larry Gatlin (with Janie Frickie)
EXTT18=Loretta Lynn and Conway Twitty
EXTT19=Johnny Lee (with Anni O'Brien)
EXTT20=Gary Fjellgaard (with Linda Kidder)
EXTT21=Charly McClain and Wayne Masse
PLAYORDER=
